<svg height="512" viewBox="0 0 128 128" width="512" xmlns="http://www.w3.org/2000/svg"><path d="m103.642 110.777a7.061 7.061 0 0 1 -5.025-2.082l-34.617-34.617-34.618 34.622a7.106 7.106 0 1 1 -10.051-10.054l34.618-34.619-34.618-34.618a7.107 7.107 0 1 1 10.051-10.05l34.618 34.618 34.617-34.618a7.107 7.107 0 1 1 10.05 10.051l-34.617 34.617 34.617 34.619a7.107 7.107 0 0 1 -5.025 12.131zm-39.642-40.924a1.745 1.745 0 0 1 1.238.513l35.854 35.855a3.692 3.692 0 0 0 5.1 0 3.607 3.607 0 0 0 0-5.1l-35.854-35.856a1.749 1.749 0 0 1 0-2.475l35.855-35.855a3.608 3.608 0 0 0 0-5.1 3.694 3.694 0 0 0 -5.1 0l-35.856 35.854a1.751 1.751 0 0 1 -2.475 0l-35.854-35.855a3.607 3.607 0 1 0 -5.1 5.1l35.853 35.856a1.749 1.749 0 0 1 0 2.475l-35.855 35.855a3.606 3.606 0 0 0 0 5.1 3.694 3.694 0 0 0 5.1 0l35.856-35.854a1.745 1.745 0 0 1 1.238-.513z"/></svg>