<svg height="512" viewBox="0 0 128 128" width="512" xmlns="http://www.w3.org/2000/svg"><g><path d="m23.963 45.877h80.072a6.75 6.75 0 0 0 0-13.5h-80.072a6.75 6.75 0 0 0 0 13.5zm0-10h80.072a3.25 3.25 0 0 1 0 6.5h-80.072a3.25 3.25 0 0 1 0-6.5z"/><path d="m104.035 57.25h-80.072a6.75 6.75 0 1 0 0 13.5h80.072a6.75 6.75 0 0 0 0-13.5zm0 10h-80.072a3.25 3.25 0 1 1 0-6.5h80.072a3.25 3.25 0 0 1 0 6.5z"/><path d="m89.035 82.123h-65.072a6.75 6.75 0 0 0 0 13.5h65.072a6.75 6.75 0 0 0 0-13.5zm0 10h-65.072a3.25 3.25 0 0 1 0-6.5h65.072a3.25 3.25 0 0 1 0 6.5z"/></g></svg>