<?xml version="1.0"?>
<svg xmlns="http://www.w3.org/2000/svg" xmlns:xlink="http://www.w3.org/1999/xlink" xmlns:svgjs="http://svgjs.com/svgjs" version="1.1" width="512" height="512" x="0" y="0" viewBox="0 0 32 32" style="enable-background:new 0 0 512 512" xml:space="preserve" class=""><g><g xmlns="http://www.w3.org/2000/svg" id="Layer_51"><path d="m25 7c.6 0 1-.4 1-1s-.4-1-1-1h-18c-.6 0-1 .4-1 1s.4 1 1 1z" fill="#ffffff" data-original="#000000" style=""/><path d="m25 27c.6 0 1-.4 1-1s-.4-1-1-1h-18c-.6 0-1 .4-1 1s.4 1 1 1z" fill="#ffffff" data-original="#000000" style=""/><path d="m29 15h-26c-.6 0-1 .4-1 1s.4 1 1 1h26c.6 0 1-.4 1-1s-.4-1-1-1z" fill="#ffffff" data-original="#000000" style=""/></g></g></svg>
