<svg height="512" viewBox="0 0 128 128" width="512" xmlns="http://www.w3.org/2000/svg"><g><path d="m59.227 81.024a6.749 6.749 0 0 0 9.546 0l21.446-21.446a6.75 6.75 0 1 0 -9.546-9.546l-9.924 9.923v-35.955a6.75 6.75 0 1 0 -13.5 0v35.955l-9.923-9.924a6.75 6.75 0 0 0 -9.546 9.547zm-18.973-28.517a3.257 3.257 0 0 1 4.6 0l12.908 12.91a1.749 1.749 0 0 0 2.987-1.237v-40.18a3.25 3.25 0 1 1 6.5 0v40.18a1.75 1.75 0 0 0 2.988 1.237l12.911-12.91a3.25 3.25 0 0 1 4.6 4.6l-21.448 21.442a3.329 3.329 0 0 1 -4.6 0l-21.446-21.449a3.252 3.252 0 0 1 0-4.6z"/><path d="m103.905 72.9a6.852 6.852 0 0 0 -6.844 6.845v16.01a1.34 1.34 0 0 1 -1.307 1.306h-63.509a1.34 1.34 0 0 1 -1.307-1.306v-16.012a6.845 6.845 0 1 0 -13.689 0v16.012a15.013 15.013 0 0 0 15 15h63.505a15.012 15.012 0 0 0 14.995-15v-16.012a6.852 6.852 0 0 0 -6.844-6.843zm3.344 22.857a11.508 11.508 0 0 1 -11.495 11.5h-63.509a11.509 11.509 0 0 1 -11.5-11.5v-16.014a3.345 3.345 0 1 1 6.689 0v16.012a4.871 4.871 0 0 0 4.807 4.806h63.513a4.871 4.871 0 0 0 4.807-4.806v-16.012a3.344 3.344 0 1 1 6.688 0z"/></g></svg>