<svg height="512" viewBox="0 0 128 128" width="512" xmlns="http://www.w3.org/2000/svg"><path d="m90 108.69a4.7 4.7 0 0 1 -2.184-.543l-23.266-12.233a1.178 1.178 0 0 0 -1.1 0l-23.269 12.233a4.682 4.682 0 0 1 -6.793-4.936l4.443-25.911a1.18 1.18 0 0 0 -.34-1.046l-18.825-18.349a4.681 4.681 0 0 1 2.6-7.985l26.015-3.78a1.182 1.182 0 0 0 .889-.648l11.63-23.573a4.653 4.653 0 0 1 4.2-2.61 4.651 4.651 0 0 1 4.2 2.61l11.632 23.573a1.189 1.189 0 0 0 .89.648l26.015 3.78a4.68 4.68 0 0 1 2.594 7.986l-18.823 18.349a1.179 1.179 0 0 0 -.34 1.046l4.443 25.91a4.692 4.692 0 0 1 -4.611 5.479zm-26-85.881a1.153 1.153 0 0 0 -1.06.659l-11.635 23.573a4.678 4.678 0 0 1 -3.525 2.559l-26.015 3.78a1.181 1.181 0 0 0 -.655 2.02l18.825 18.35a4.684 4.684 0 0 1 1.346 4.144l-4.444 25.906a1.182 1.182 0 0 0 1.715 1.246l23.268-12.23a4.691 4.691 0 0 1 4.359 0l23.268 12.233a1.182 1.182 0 0 0 1.715-1.246l-4.443-25.91a4.679 4.679 0 0 1 1.345-4.144l18.825-18.349a1.182 1.182 0 0 0 -.655-2.016l-26.015-3.784a4.681 4.681 0 0 1 -3.525-2.561l-11.634-23.571a1.152 1.152 0 0 0 -1.06-.659z"/></svg>