<?xml version="1.0"?>
<svg xmlns="http://www.w3.org/2000/svg" xmlns:xlink="http://www.w3.org/1999/xlink" xmlns:svgjs="http://svgjs.com/svgjs" version="1.1" width="512" height="512" x="0" y="0" viewBox="0 0 512 512" style="enable-background:new 0 0 512 512" xml:space="preserve" class=""><g><path xmlns="http://www.w3.org/2000/svg" d="m442 0h-372a70.079 70.079 0 0 0 -70 70v372a70.079 70.079 0 0 0 70 70h372a70.079 70.079 0 0 0 70-70v-372a70.079 70.079 0 0 0 -70-70zm38 442a38.043 38.043 0 0 1 -38 38h-372a38.043 38.043 0 0 1 -38-38v-372a38.043 38.043 0 0 1 38-38h372a38.043 38.043 0 0 1 38 38zm-105.7-208.41-168.8-97.454a25.877 25.877 0 0 0 -38.817 22.409v194.91a25.822 25.822 0 0 0 38.816 22.41l168.801-97.455a25.877 25.877 0 0 0 0-44.82zm-175.616 109.26v-173.7l150.427 86.85z" fill="#ffffff" data-original="#000000" style="" class=""/></g></svg>
