<svg height="512" viewBox="0 0 128 128" width="512" xmlns="http://www.w3.org/2000/svg"><g><path d="m64 17.25a46.75 46.75 0 1 0 46.748 46.75 46.8 46.8 0 0 0 -46.748-46.75zm0 90a43.25 43.25 0 1 1 43.248-43.25 43.3 43.3 0 0 1 -43.248 43.25z"/><path d="m64 35.917a17.756 17.756 0 0 0 -17.2 13.332 5.75 5.75 0 0 0 11.139 2.857 6.251 6.251 0 1 1 6.061 7.809 5.757 5.757 0 0 0 -5.75 5.75 2.577 2.577 0 0 0 .017.29 2.813 2.813 0 0 0 -.017.293v6.319a5.75 5.75 0 1 0 11.5 0v-2.127a17.738 17.738 0 0 0 -5.75-34.523zm3.56 31.527a1.752 1.752 0 0 0 -1.312 1.695v3.428a2.25 2.25 0 1 1 -4.5 0v-6.257c.01-.074.019-.148.024-.223a1.625 1.625 0 0 0 0-.261.574.574 0 0 0 -.024-.161 2.252 2.252 0 0 1 2.252-2.25 9.746 9.746 0 1 0 -9.445-12.179 2.249 2.249 0 1 1 -4.355-1.117 14.248 14.248 0 1 1 17.36 17.325z"/><path d="m63.96 81.788a5.712 5.712 0 1 0 5.712 5.712 5.719 5.719 0 0 0 -5.712-5.712zm0 7.924a2.212 2.212 0 1 1 2.212-2.212 2.214 2.214 0 0 1 -2.212 2.212z"/></g></svg>