<svg height="512" viewBox="0 0 128 128" width="512" xmlns="http://www.w3.org/2000/svg"><g><path d="m63.963 17.25a46.75 46.75 0 1 0 46.75 46.75 46.8 46.8 0 0 0 -46.75-46.75zm0 90a43.25 43.25 0 1 1 43.25-43.25 43.3 43.3 0 0 1 -43.25 43.25z"/><path d="m81.249 66.3h-7.309v-23.6a1.75 1.75 0 0 0 -1.75-1.75h-16.381a1.75 1.75 0 0 0 -1.75 1.75v23.6h-7.31a1.749 1.749 0 0 0 -1.237 2.987l17.25 17.25a1.748 1.748 0 0 0 2.474 0l17.25-17.25a1.749 1.749 0 0 0 -1.237-2.987zm-17.249 16.529-13.026-13.029h4.835a1.751 1.751 0 0 0 1.75-1.75v-23.604h12.881v23.608a1.751 1.751 0 0 0 1.75 1.75h4.834z"/></g></svg>