<svg height="512" viewBox="0 0 128 128" width="512" xmlns="http://www.w3.org/2000/svg"><g><path d="m100.162 27.838a36.136 36.136 0 0 0 -56.438 44.309l-23.96 23.959a8.577 8.577 0 0 0 12.129 12.13l23.96-23.96a36.135 36.135 0 0 0 44.309-56.438zm-2.475 48.62a32.676 32.676 0 0 1 -41.107 4.13 1.753 1.753 0 0 0 -2.207.22l-24.955 24.954a5.077 5.077 0 0 1 -7.18-7.181l24.953-24.953a1.749 1.749 0 0 0 .22-2.207 32.642 32.642 0 1 1 50.276 5.037z"/><path d="m93.186 34.814a26.263 26.263 0 1 0 7.693 18.571 26.293 26.293 0 0 0 -7.693-18.571zm-2.475 34.668a22.764 22.764 0 1 1 6.668-16.1 22.613 22.613 0 0 1 -6.668 16.1z"/></g></svg>