<?xml version="1.0" encoding="UTF-8"?>
<svg xmlns="http://www.w3.org/2000/svg" width="512" height="512" viewBox="0 0 128 128"><g><path d="M106.205,54.622,100.374,54a1.565,1.565,0,0,1-1.327-1.08A36.78,36.78,0,0,0,96.5,46.9a1.571,1.571,0,0,1,.162-1.728l3.72-4.6a5.074,5.074,0,0,0-.361-6.788l-5.929-5.93a5.074,5.074,0,0,0-6.788-.36L82.6,31.29a1.574,1.574,0,0,1-1.712.17,36.584,36.584,0,0,0-5.9-2.426,1.572,1.572,0,0,1-1.1-1.333l-.641-6.037a5.073,5.073,0,0,0-5.054-4.544H59.808a5.073,5.073,0,0,0-5.055,4.545L54.112,27.7a1.572,1.572,0,0,1-1.1,1.333,36.584,36.584,0,0,0-5.9,2.426,1.573,1.573,0,0,1-1.712-.171l-4.705-3.8a5.075,5.075,0,0,0-6.788.36l-5.93,5.93a5.074,5.074,0,0,0-.36,6.788l3.72,4.6A1.571,1.571,0,0,1,31.5,46.9a36.78,36.78,0,0,0-2.546,6.027A1.565,1.565,0,0,1,27.627,54l-5.831.619a5.073,5.073,0,0,0-4.545,5.054v8.387A5.074,5.074,0,0,0,21.8,73.117l5.656.6a1.566,1.566,0,0,1,1.336,1.105,36.582,36.582,0,0,0,2.544,6.263,1.568,1.568,0,0,1-.174,1.707l-3.54,4.382a5.073,5.073,0,0,0,.36,6.787l5.93,5.931a5.074,5.074,0,0,0,6.788.36l4.281-3.46a1.568,1.568,0,0,1,1.722-.165,36.7,36.7,0,0,0,6.386,2.665,1.563,1.563,0,0,1,1.09,1.33l.578,5.453a5.074,5.074,0,0,0,5.055,4.545h8.386a5.074,5.074,0,0,0,5.054-4.546l.578-5.451a1.563,1.563,0,0,1,1.09-1.331A36.738,36.738,0,0,0,81.3,96.627a1.564,1.564,0,0,1,1.721.165l4.281,3.46a5.074,5.074,0,0,0,6.788-.36l5.929-5.931a5.074,5.074,0,0,0,.361-6.788l-3.54-4.381a1.566,1.566,0,0,1-.174-1.706,36.706,36.706,0,0,0,2.544-6.264,1.565,1.565,0,0,1,1.336-1.105l5.656-.6a5.074,5.074,0,0,0,4.545-5.054V59.676A5.073,5.073,0,0,0,106.205,54.622Zm1.045,13.441a1.579,1.579,0,0,1-1.414,1.573l-5.656.6a5.056,5.056,0,0,0-4.317,3.573,33.165,33.165,0,0,1-2.3,5.665,5.071,5.071,0,0,0,.559,5.518l3.54,4.38a1.581,1.581,0,0,1-.112,2.114l-5.93,5.93a1.581,1.581,0,0,1-2.114.112l-4.28-3.459a5.055,5.055,0,0,0-5.569-.531,33.155,33.155,0,0,1-5.776,2.41,5.059,5.059,0,0,0-3.533,4.3l-.578,5.451a1.581,1.581,0,0,1-1.574,1.416H59.808a1.581,1.581,0,0,1-1.575-1.415l-.578-5.453a5.061,5.061,0,0,0-3.533-4.3,33.113,33.113,0,0,1-5.775-2.41,5.061,5.061,0,0,0-5.57.531L38.5,97.529a1.58,1.58,0,0,1-2.114-.112l-5.93-5.93a1.581,1.581,0,0,1-.112-2.114l3.54-4.38a5.072,5.072,0,0,0,.558-5.519,33.118,33.118,0,0,1-2.3-5.664,5.057,5.057,0,0,0-4.317-3.573l-5.656-.6a1.579,1.579,0,0,1-1.414-1.573V59.676A1.581,1.581,0,0,1,22.165,58.1L28,57.483a5.069,5.069,0,0,0,4.292-3.493,33.205,33.205,0,0,1,2.3-5.449,5.068,5.068,0,0,0-.53-5.573l-3.719-4.6a1.581,1.581,0,0,1,.112-2.114l5.93-5.93A1.577,1.577,0,0,1,38.5,30.21l4.7,3.8a5.073,5.073,0,0,0,5.521.557,33.141,33.141,0,0,1,5.336-2.194,5.068,5.068,0,0,0,3.534-4.3l.64-6.035a1.58,1.58,0,0,1,1.575-1.415h8.386a1.58,1.58,0,0,1,1.574,1.414l.64,6.036a5.068,5.068,0,0,0,3.534,4.3,33.141,33.141,0,0,1,5.336,2.194,5.073,5.073,0,0,0,5.521-.556l4.7-3.8a1.582,1.582,0,0,1,2.114.112l5.93,5.93a1.579,1.579,0,0,1,.112,2.113l-3.72,4.6a5.066,5.066,0,0,0-.529,5.571,33.252,33.252,0,0,1,2.3,5.45,5.069,5.069,0,0,0,4.292,3.493l5.831.619a1.581,1.581,0,0,1,1.414,1.574Z"/><path d="M64,41.12a22.992,22.992,0,0,0-14.14,41.137A22.615,22.615,0,0,0,63.125,87.1c.288.023.576.025.876.025s.587,0,.786-.021A23.026,23.026,0,0,0,87.011,64.129,23.036,23.036,0,0,0,64,41.12ZM75.981,79.5a19.3,19.3,0,0,1-11.4,4.113c-.193.017-.387.014-.584.014s-.394,0-.674-.019A19.528,19.528,0,0,1,44.49,64.129,19.511,19.511,0,1,1,75.981,79.5Z"/></g></svg>
