<svg height="512" viewBox="0 0 128 128" width="512" xmlns="http://www.w3.org/2000/svg"><g><path d="m22.67 38.94h29.96a13.267 13.267 0 0 0 24.23 0h28.47a5.415 5.415 0 1 0 0-10.83h-28.473a13.263 13.263 0 0 0 -24.225 0h-29.962a5.415 5.415 0 1 0 0 10.83zm84.58-5.41a1.892 1.892 0 0 1 -.549 1.344 1.944 1.944 0 0 1 -1.371.566h-27.456a12.718 12.718 0 0 0 0-3.83h27.456a1.922 1.922 0 0 1 1.92 1.92zm-42.51-9.78a9.766 9.766 0 0 1 9.273 6.672 9.773 9.773 0 1 1 -9.273-6.672zm-43.44 8.427a1.942 1.942 0 0 1 1.372-.567h28.943a13.335 13.335 0 0 0 -.145 1.92 13.186 13.186 0 0 0 .145 1.91h-28.945a1.92 1.92 0 0 1 -1.37-3.263z"/><path d="m105.33 58.58h-48.883a13.263 13.263 0 0 0 -24.225 0h-9.552a5.42 5.42 0 0 0 0 10.84h9.552a13.264 13.264 0 0 0 24.226 0h48.882a5.42 5.42 0 0 0 0-10.84zm-84.58 5.42a1.911 1.911 0 0 1 .548-1.353 1.945 1.945 0 0 1 1.372-.567h8.536a12.741 12.741 0 0 0 0 3.84h-8.536a1.922 1.922 0 0 1 -1.92-1.92zm23.58 9.78a9.78 9.78 0 1 1 9.27-12.887 9.759 9.759 0 0 1 0 6.221 9.76 9.76 0 0 1 -9.27 6.666zm62.37-8.427a1.941 1.941 0 0 1 -1.371.567h-47.865a12.7 12.7 0 0 0 0-3.84h47.866a1.926 1.926 0 0 1 1.371 3.273z"/><path d="m105.33 89.06h-15.1a13.274 13.274 0 0 0 -24.239 0h-43.321a5.434 5.434 0 0 0 -3.838 1.583 5.42 5.42 0 0 0 3.838 9.247h43.323a13.271 13.271 0 0 0 24.235 0h15.1a5.415 5.415 0 1 0 0-10.83zm-84.58 5.41a1.891 1.891 0 0 1 .548-1.343 1.945 1.945 0 0 1 1.372-.567h42.3a12.718 12.718 0 0 0 0 3.83h-42.3a1.922 1.922 0 0 1 -1.92-1.92zm57.36 9.78a9.78 9.78 0 0 1 -9.78-9.78 9.78 9.78 0 1 1 19.051 3.114 9.764 9.764 0 0 1 -9.271 6.666zm28.59-8.426a1.943 1.943 0 0 1 -1.371.566h-14.085a12.675 12.675 0 0 0 0-3.83h14.086a1.92 1.92 0 0 1 1.371 3.264z"/></g></svg>