<svg height="512" viewBox="0 0 128 128" width="512" xmlns="http://www.w3.org/2000/svg"><path d="m90.4 110.773a16.142 16.142 0 0 1 -16.128-16.119 16.3 16.3 0 0 1 .21-2.607l-26.208-15.424a16.129 16.129 0 1 1 0-24.8l26.279-15.47a16.125 16.125 0 1 1 5.534 9.4l-26.278 15.474a16.135 16.135 0 0 1 0 5.991l25.98 15.294a15.947 15.947 0 0 1 10.611-3.986 16.124 16.124 0 1 1 0 32.247zm-42.346-38.061a1.742 1.742 0 0 1 .887.242l28.394 16.711a1.749 1.749 0 0 1 .81 1.933 12.655 12.655 0 1 0 3.155-5.698 1.752 1.752 0 0 1 -2.151.3l-28.225-16.618a1.75 1.75 0 0 1 -.8-1.98 12.591 12.591 0 0 0 0-6.759 1.75 1.75 0 0 1 .8-1.98l28.5-16.776a1.75 1.75 0 0 1 2.117.262 12.64 12.64 0 1 0 -3.3-5.614 1.749 1.749 0 0 1 -.8 1.98l-28.5 16.776a1.751 1.751 0 0 1 -2.116-.262 12.628 12.628 0 1 0 0 17.987 1.746 1.746 0 0 1 1.229-.504z"/></svg>