<?xml version="1.0" encoding="iso-8859-1"?>
<!-- Generator: Adobe Illustrator 19.0.0, SVG Export Plug-In . SVG Version: 6.00 Build 0)  -->
<svg version="1.1" id="Capa_1" xmlns="http://www.w3.org/2000/svg" xmlns:xlink="http://www.w3.org/1999/xlink" x="0px" y="0px"
	 viewBox="0 0 372.2 372.2" style="enable-background:new 0 0 372.2 372.2;" xml:space="preserve">
<g>
	<g>
		<path d="M264.82,147.68c-6.98-7.047-18.352-7.102-25.399-0.121c-3.425,3.393-5.343,8.02-5.321,12.841v152
			c-0.005,4.774,1.896,9.353,5.28,12.72l0.04-0.04c7.003,7.025,18.374,7.043,25.399,0.041c3.391-3.38,5.292-7.973,5.281-12.761v-152
			C270.094,155.6,268.194,151.038,264.82,147.68z M257.7,312.4c-0.045,3.203-2.678,5.763-5.881,5.718
			c-1.519-0.021-2.969-0.638-4.039-1.718c-1.071-1.059-1.688-2.494-1.72-4l0.04-152c0.045-3.203,2.678-5.763,5.881-5.718
			c1.519,0.021,2.969,0.638,4.039,1.718c1.056,1.066,1.659,2.5,1.68,4V312.4z"/>
	</g>
</g>
<g>
	<g>
		<path d="M198.82,147.68c-6.962-7.003-18.283-7.036-25.286-0.074c-0.025,0.025-0.049,0.049-0.074,0.074
			c-3.374,3.358-5.274,7.92-5.28,12.68v152c0.006,4.76,1.906,9.322,5.28,12.68l-0.04,0.04c7.003,7.025,18.374,7.043,25.399,0.041
			c3.391-3.38,5.292-7.973,5.281-12.761v-152C204.094,155.6,202.194,151.038,198.82,147.68z M191.66,312.4
			c0,3.203-2.597,5.8-5.8,5.8s-5.8-2.597-5.8-5.8l0.24-152c0.021-1.5,0.624-2.934,1.68-4c2.248-2.113,5.752-2.113,8,0
			c1.056,1.066,1.659,2.5,1.68,4V312.4z"/>
	</g>
</g>
<g>
	<g>
		<path d="M336.38,52.72l-0.36-0.36c-4.487-4.492-10.571-7.024-16.92-7.04h-59.68V20.76C259.398,9.304,250.116,0.022,238.66,0
			H133.54c-11.456,0.022-20.738,9.304-20.76,20.76v24.56H53.1c-6.349,0.016-12.433,2.548-16.92,7.04
			c-4.492,4.487-7.024,10.571-7.04,16.92v19.48c0.014,6.174,2.406,12.105,6.68,16.56l0.36,0.36c3.512,3.509,8.026,5.843,12.92,6.68
			V322.6c0.066,27.366,22.234,49.534,49.6,49.6h174.8c27.366-0.066,49.534-22.234,49.6-49.6V112.4
			c4.894-0.837,9.408-3.171,12.92-6.68c4.492-4.487,7.024-10.571,7.04-16.92V69.28C343.046,63.106,340.654,57.175,336.38,52.72z
			 M124.98,20.76c0.022-4.718,3.842-8.538,8.56-8.56h105.12c4.718,0.022,8.538,3.842,8.56,8.56v24.56H124.98V20.76z M273.54,360.04
			H98.7c-20.65-0.066-37.374-16.79-37.44-37.44V112.76h249.68l0.04,209.84C310.914,343.25,294.19,359.974,273.54,360.04z
			 M327.54,97.08c-2.201,2.22-5.194,3.472-8.32,3.48H53.1c-3.126-0.008-6.119-1.26-8.32-3.48l-0.24-0.24
			c-2.02-2.179-3.16-5.029-3.2-8V69.28c0.023-3.115,1.257-6.098,3.44-8.32c2.201-2.22,5.194-3.472,8.32-3.48h266
			c3.126,0.008,6.119,1.26,8.32,3.48l0.24,0.24c2.04,2.166,3.184,5.025,3.2,8l0.12,19.56
			C330.957,91.875,329.723,94.858,327.54,97.08z"/>
	</g>
</g>
<g>
	<g>
		<path d="M132.82,147.68c-6.962-7.003-18.283-7.036-25.286-0.074c-0.025,0.025-0.049,0.049-0.074,0.074
			c-3.413,3.354-5.343,7.934-5.36,12.72v152c0.006,4.76,1.906,9.322,5.28,12.68h0.04c6.962,7.003,18.283,7.036,25.286,0.074
			c0.025-0.025,0.049-0.049,0.074-0.074c3.399-3.361,5.314-7.94,5.32-12.72v-152C138.094,155.6,136.194,151.038,132.82,147.68z
			 M125.46,312.4c0,3.203-2.597,5.8-5.8,5.8s-5.8-2.597-5.8-5.8l0.24-152c0.021-1.5,0.624-2.934,1.68-4c2.248-2.113,5.752-2.113,8,0
			c1.056,1.066,1.659,2.5,1.68,4V312.4z"/>
	</g>
</g>
<g>
</g>
<g>
</g>
<g>
</g>
<g>
</g>
<g>
</g>
<g>
</g>
<g>
</g>
<g>
</g>
<g>
</g>
<g>
</g>
<g>
</g>
<g>
</g>
<g>
</g>
<g>
</g>
<g>
</g>
</svg>
