<svg height="512" viewBox="0 0 128 128" width="512" xmlns="http://www.w3.org/2000/svg"><g><path d="m64 77.418a13.418 13.418 0 1 0 -13.418-13.418 13.433 13.433 0 0 0 13.418 13.418zm0-23.336a9.918 9.918 0 1 1 -9.918 9.918 9.929 9.929 0 0 1 9.918-9.918z"/><path d="m123.157 63.041c-.19-.289-19.385-28.877-59.157-28.877s-58.967 28.588-59.157 28.877a1.752 1.752 0 0 0 0 1.918c.19.289 19.384 28.877 59.157 28.877s58.967-28.588 59.157-28.877a1.752 1.752 0 0 0 0-1.918zm-114.693.959a69.4 69.4 0 0 1 38.325-24.348 29.791 29.791 0 0 0 0 48.7 69.4 69.4 0 0 1 -38.325-24.352zm55.536-26.336a26.336 26.336 0 1 1 -26.336 26.336 26.367 26.367 0 0 1 26.336-26.336zm17.211 50.684a29.791 29.791 0 0 0 0-48.7 69.4 69.4 0 0 1 38.325 24.352 69.4 69.4 0 0 1 -38.325 24.348z"/></g></svg>